<svg width="82" height="52" viewBox="0 0 82 52" fill="none" xmlns="http://www.w3.org/2000/svg">
<path d="M80.6664 24.0056C79.8139 22.987 78.651 22.3251 77.3179 22.0776L76.6917 13.5574C77.3094 13.5515 77.8362 13.1054 77.9438 12.4942L78.1853 11.1213C78.4441 9.64958 78.0831 8.19685 77.1947 7.13571C76.3075 6.0757 75.0084 5.49175 73.5368 5.49175H64.1109L64.5698 2.88347C64.7 2.14266 64.5113 1.40296 64.0523 0.854493C63.5978 0.311484 62.9144 0 62.1773 0H15.7792C14.4072 0 13.1442 1.07012 12.9038 2.43664L8.79883 25.7766C8.67583 26.4766 9.14205 27.1442 9.84033 27.2675C9.9156 27.2809 9.99055 27.2873 10.0647 27.2873C10.676 27.2873 11.2178 26.8478 11.3275 26.2234L15.4327 2.88347C15.4597 2.72982 15.657 2.57408 15.7791 2.57408L62.0166 2.57424L57.9356 25.7766C57.8124 26.4766 58.2787 27.1442 58.9771 27.2675C59.6746 27.3907 60.3413 26.9235 60.4643 26.2234L60.7603 24.5409H76.1138C76.1143 24.5409 76.115 24.5409 76.1156 24.5409C76.1162 24.5409 76.1169 24.5409 76.1174 24.5409C77.1786 24.5411 78.0954 24.9385 78.6994 25.6599C79.115 26.1565 79.3575 26.7746 79.4158 27.4584H75.151C74.5278 27.4584 73.9948 27.9069 73.8865 28.5221L73.4037 31.268C73.2091 32.3743 73.4839 33.4704 74.1575 34.2753C74.8219 35.0692 75.8304 35.5244 76.9241 35.5244H78.1329L77.1368 41.1878H73.747C73.5239 40.0551 73.0356 39.0132 72.2955 38.1293C70.9824 36.5602 69.05 35.6962 66.8547 35.6962C63.3346 35.6962 59.9385 38.0051 58.3486 41.188H57.8325L59.4986 31.7152C59.6216 31.0151 59.1555 30.3475 58.4571 30.2242C57.7591 30.1006 57.0929 30.5681 56.9699 31.2683L55.2251 41.1881H31.4576C31.2345 40.0554 30.7462 39.0137 30.0061 38.1296C28.6928 36.5605 26.7605 35.6965 24.5651 35.6965C21.045 35.6965 17.6489 38.0054 16.059 41.1883L8.69537 41.1881L9.20851 38.2708H14.9788C15.6878 38.2708 16.2628 37.6945 16.2628 36.9836C16.2628 36.2728 15.688 35.6964 14.9788 35.6964H1.28397C0.574961 35.6964 0 36.2726 0 36.9836C0 37.6944 0.574801 38.2708 1.28397 38.2708H6.60132L6.14248 40.8791C6.01227 41.6199 6.20093 42.3596 6.65994 42.908C7.11447 43.4511 7.79785 43.7625 8.53489 43.7625H15.2253C14.8772 45.946 15.4003 48.0029 16.7096 49.5669C18.0229 51.136 19.9552 52 22.1506 52C26.5203 52 30.7009 48.4435 31.4698 44.0716C31.4879 43.968 31.5021 43.8651 31.5165 43.7624H57.5149C57.1667 45.9456 57.6898 48.0026 58.9992 49.5667C60.3125 51.1359 62.2448 51.9998 64.4402 51.9998C68.8099 51.9998 72.9905 48.4433 73.7594 44.0714C73.7775 43.9679 73.7917 43.865 73.8061 43.7622H78.2144C78.8376 43.7622 79.3706 43.3138 79.4789 42.6985L81.8937 28.9691C82.2214 27.1055 81.7856 25.3428 80.6664 24.0056ZM61.2134 21.9672L62.6924 13.5579H74.1173L74.7354 21.9672H61.2134ZM75.6564 10.6744L75.602 10.9837H63.145L63.6582 8.06615H73.5368C74.2362 8.06615 74.8367 8.32337 75.2275 8.79043C75.6327 9.27435 75.7852 9.94324 75.6564 10.6744ZM28.9411 43.6249C28.3786 46.8237 25.3323 49.4259 22.1506 49.4259C20.7274 49.4259 19.4936 48.8884 18.6766 47.9125C17.8361 46.9082 17.5158 45.5444 17.7748 44.0721C18.3374 40.8733 21.3836 38.2711 24.5653 38.2711C25.9884 38.2711 27.2223 38.8087 28.0392 39.7847C28.8797 40.7887 29.2 42.1526 28.9411 43.6249ZM71.2305 43.6249C70.6679 46.8237 67.6217 49.4259 64.44 49.4259C63.0169 49.4259 61.783 48.8884 60.9661 47.9123C60.1256 46.908 59.8053 45.5443 60.0642 44.0719C60.6267 40.8731 63.673 38.2709 66.8547 38.2709C68.2777 38.2709 69.5117 38.8085 70.3287 39.7845C71.1692 40.7887 71.4895 42.1526 71.2305 43.6249ZM78.5857 32.9508H76.9241V32.9507C76.5815 32.9507 76.3051 32.8367 76.1246 32.6212C75.9373 32.3974 75.869 32.0758 75.9324 31.7156L76.2283 30.0335H79.0988L78.5857 32.9508Z" fill="#AE7C78"/>
<path d="M25.4749 42.0428C25.0204 41.4998 24.337 41.1883 23.5998 41.1883C22.2278 41.1883 20.9648 42.2584 20.7244 43.6249C20.5942 44.3658 20.7828 45.1054 21.2418 45.6539C21.6964 46.1969 22.3798 46.5084 23.1168 46.5084C24.4889 46.5084 25.7518 45.4381 25.9922 44.0719C26.1226 43.331 25.9341 42.5914 25.4749 42.0428Z" fill="#AE7C78"/>
<path d="M67.7637 42.0428C67.309 41.4998 66.6256 41.1883 65.8888 41.1883C64.5167 41.1883 63.2537 42.2584 63.0135 43.6248C62.8833 44.3658 63.0716 45.1053 63.5308 45.6539C63.9853 46.1969 64.6687 46.5084 65.4057 46.5084C66.7778 46.5084 68.0408 45.4381 68.2812 44.0719C68.4116 43.331 68.2229 42.5914 67.7637 42.0428Z" fill="#AE7C78"/>
<path d="M51.7904 35.6965H35.5213C34.8123 35.6965 34.2373 36.2728 34.2373 36.9837C34.2373 37.6945 34.8121 38.2709 35.5213 38.2709H51.7904C52.4995 38.2709 53.0744 37.6947 53.0744 36.9837C53.0743 36.2728 52.4995 35.6965 51.7904 35.6965Z" fill="#AE7C78"/>
<path d="M28.6739 30.2048H4.98905C4.28004 30.2048 3.70508 30.781 3.70508 31.492C3.70508 32.2028 4.27972 32.7792 4.98905 32.7792H28.6739C29.3829 32.7792 29.9579 32.2029 29.9579 31.492C29.9579 30.781 29.3831 30.2048 28.6739 30.2048Z" fill="#AE7C78"/>
<path d="M53.1919 25.0263L48.4385 20.9075C47.9019 20.4428 47.0912 20.5017 46.6274 21.0396C46.1636 21.5775 46.2227 22.3902 46.7592 22.8552L48.9034 24.7132H16.3479C15.6389 24.7132 15.064 25.2894 15.064 26.0004C15.064 26.7112 15.6388 27.2876 16.3479 27.2876H48.0892L45.441 29.0463C44.8497 29.4388 44.6881 30.2375 45.0797 30.8302C45.3266 31.2041 45.735 31.4066 46.1511 31.4066C46.3946 31.4066 46.6409 31.3372 46.859 31.1922L53.0614 27.0734C53.3964 26.8512 53.608 26.4845 53.6336 26.0824C53.6592 25.6802 53.4959 25.2894 53.1919 25.0263Z" fill="#AE7C78"/>
</svg>
