<svg width="34" height="52" viewBox="0 0 34 52" fill="none" xmlns="http://www.w3.org/2000/svg">
<path d="M26.7022 13.8987C26.9137 13.8987 27.127 13.8819 27.34 13.8482C28.4001 13.6801 29.3312 13.1092 29.9619 12.2408L33.7893 6.9709C33.9444 6.75732 33.9779 6.47863 33.8777 6.23437C33.7776 5.99012 33.5581 5.81512 33.2977 5.77186C33.2299 5.76059 31.7288 5.51409 29.8959 5.49378C29.3089 3.75767 28.6114 2.407 28.5792 2.34484C28.4576 2.11054 28.2233 1.95596 27.96 1.93636C27.6971 1.91625 27.442 2.03467 27.287 2.24836L23.4596 7.51822C22.8289 8.38668 22.5741 9.44872 22.7421 10.5088C22.8666 11.2938 23.2124 12.0077 23.7358 12.5816C23.1564 13.2701 22.1363 14.523 21.0179 16.0822V15.4161C21.0179 14.9954 20.6769 14.6544 20.2562 14.6544C19.8355 14.6544 19.4945 14.9954 19.4945 15.4161V18.3265C18.8832 19.2834 18.2878 20.2952 17.7614 21.3223V17.0447C17.7614 17.0446 17.7614 17.0444 17.7614 17.0442V15.7317L19.9808 13.5123C20.2782 13.2149 20.2782 12.7325 19.9808 12.4352C19.6833 12.1377 19.201 12.1377 18.9036 12.4352L17.7612 13.5772V11.2197C19.6137 10.8626 21.0177 9.22995 21.0177 7.27478V0.761688C21.0177 0.497728 20.881 0.252557 20.6565 0.113721C20.4319 -0.0251148 20.1516 -0.0377085 19.9154 0.0804085C19.8538 0.111182 18.4955 0.794391 16.9996 1.8546C15.5044 0.794798 14.1462 0.11169 14.0837 0.0804085C13.8474 -0.0377085 13.567 -0.0250132 13.3426 0.113721C13.118 0.252557 12.9813 0.497728 12.9813 0.761688V7.27478C12.9813 9.22995 14.3853 10.8627 16.2378 11.2197V15.2055L14.2816 13.2493C13.9841 12.9518 13.5018 12.9518 13.2044 13.2493C12.907 13.5468 12.907 14.0291 13.2044 14.3265L16.2379 17.3599V21.3223C14.295 17.5318 11.4125 13.9468 10.2635 12.5816C10.7869 12.0077 11.1328 11.2938 11.2572 10.5088C11.4253 9.44872 11.1704 8.38668 10.5397 7.51822L6.71236 2.24836C6.55728 2.03467 6.30226 1.91635 6.03931 1.93636C5.77606 1.95596 5.54176 2.11054 5.42009 2.34484C5.38759 2.407 4.69016 3.75778 4.10323 5.49388C2.27115 5.5144 0.769345 5.76059 0.7014 5.77186C0.440994 5.81512 0.221416 5.99012 0.121377 6.23437C0.0212369 6.47863 0.0547519 6.75732 0.209838 6.9709L4.03721 12.2408C4.66792 13.1092 5.59904 13.68 6.65915 13.8482C6.87222 13.882 7.0853 13.8987 7.29696 13.8987C7.90278 13.8987 8.4959 13.7612 9.03967 13.4964C9.27499 13.7764 9.60009 14.17 9.98491 14.6545H9.31612C8.89545 14.6545 8.5544 14.9955 8.5544 15.4162C8.5544 15.8369 8.89545 16.1779 9.31612 16.1779H11.156C12.2689 17.6745 13.5587 19.5575 14.6074 21.5003C13.3685 20.2829 11.9917 19.1905 10.4882 18.2337C5.92668 15.3308 1.81666 14.6888 1.6439 14.6629C1.42483 14.6301 1.2019 14.6944 1.03391 14.839C0.865829 14.9838 0.769243 15.1945 0.769243 15.4162C0.769243 15.538 0.786001 18.4448 2.23875 22.492C3.55063 26.1465 6.3373 31.4531 12.1672 36.135V38.9264L8.93638 51.0419C8.87534 51.2705 8.92409 51.5146 9.06831 51.7023C9.21242 51.89 9.43566 52 9.6723 52H24.3267C24.5634 52 24.7866 51.89 24.9307 51.7023C25.0749 51.5146 25.1237 51.2707 25.0626 51.0419L21.8318 38.9264V36.135C27.6616 31.4531 30.4484 26.1465 31.7603 22.492C33.2131 18.4448 33.2298 15.538 33.2298 15.4162C33.2298 15.1945 33.1331 14.9838 32.9651 14.839C32.7971 14.6943 32.5746 14.6299 32.355 14.6629C32.2542 14.6781 29.8475 15.0503 26.679 16.5086C24.6029 17.4641 21.9077 19.0372 19.3851 21.5131C20.4352 19.5663 21.7283 17.678 22.8436 16.1779H24.6828C25.1035 16.1779 25.4445 15.8369 25.4445 15.4162C25.4445 14.9955 25.1035 14.6545 24.6828 14.6545H24.0145C24.3992 14.1701 24.7241 13.7765 24.9594 13.4965C25.5033 13.7612 26.0963 13.8987 26.7022 13.8987ZM31.7966 7.12213L30.6464 8.70579C30.5922 8.18447 30.4936 7.62629 30.3466 7.02849C30.883 7.04677 31.3799 7.08283 31.7966 7.12213ZM3.35258 8.70579L2.20219 7.12183C2.61849 7.08252 3.11533 7.04667 3.65239 7.02859C3.50543 7.62639 3.40682 8.18447 3.35258 8.70579ZM8.75448 11.8981C8.21518 12.2897 7.55584 12.448 6.89761 12.3435C6.23949 12.2391 5.6614 11.8848 5.26977 11.3456C4.17747 9.84166 5.33609 6.28759 6.23827 4.1882L9.30698 8.41339C10.1153 9.52641 9.8675 11.0897 8.75448 11.8981ZM19.4943 2.05488V4.00904C19.1446 3.62016 18.7352 3.22732 18.2662 2.83112C18.7108 2.5307 19.1339 2.26796 19.4943 2.05488ZM14.5047 7.27478V2.05275C16.4685 3.22132 19.4944 5.41598 19.4944 7.27478C19.4944 8.65044 18.3752 9.76955 16.9996 9.76955C15.6241 9.76955 14.5047 8.65044 14.5047 7.27478ZM3.69607 22.0424C2.7947 19.5518 2.47214 17.4989 2.35666 16.3671C3.77721 16.7132 6.63081 17.5847 9.67037 19.5189C12.1884 21.1214 14.3268 23.1266 16.0257 25.4792C17.9914 28.2009 19.373 31.4033 20.1418 35.0079H18.3677C17.3936 30.7348 15.4765 27.0973 12.6624 24.1897C12.3699 23.8873 11.8877 23.8794 11.5853 24.1721C11.283 24.4646 11.2752 24.9469 11.5678 25.2492C14.1107 27.8766 15.8678 31.1567 16.8017 35.0079H13.1965C7.61688 30.5533 4.95046 25.5089 3.69607 22.0424ZM20.3084 36.5312V38.2644H13.6905V36.5312H20.3084ZM23.3353 50.4764H20.1088L19.98 49.5095C19.9244 49.0925 19.5413 48.7993 19.1243 48.8551C18.7073 48.9107 18.4144 49.2937 18.4699 49.7108L18.572 50.4763H10.6638L13.5141 39.7877H17.1468L18.0356 46.4542C18.0866 46.8371 18.4138 47.1153 18.7898 47.1153C18.8233 47.1153 18.8572 47.1131 18.8913 47.1085C19.3083 47.053 19.6012 46.6699 19.5457 46.2529L18.6836 39.7877H20.4849L23.3353 50.4764ZM27.2676 17.9149C29.1088 17.0627 30.6939 16.5988 31.6422 16.3677C31.5267 17.4998 31.204 19.5523 30.3029 22.0424C29.1069 25.3475 26.628 30.0872 21.5637 34.3824C20.8307 31.1081 19.6092 28.1478 17.9206 25.5537C20.8487 21.4679 24.6027 19.148 27.2676 17.9149ZM24.692 8.41339L27.7613 4.18749C28.6642 6.28587 29.8237 9.83872 28.7292 11.3456C28.3376 11.8848 27.7595 12.2391 27.1014 12.3435C26.4432 12.4479 25.7838 12.2897 25.2446 11.8981C24.1315 11.0897 23.8837 9.52652 24.692 8.41339Z" fill="#AE7C78"/>
</svg>
