<svg width="59" height="52" viewBox="0 0 59 52" fill="none" xmlns="http://www.w3.org/2000/svg">
<path d="M55.3814 4.60615H44.9537L43.9443 1.81646C43.7816 1.36715 43.2863 0 41.8869 0H28.5343C27.1349 0 26.6396 1.36715 26.4767 1.8168L25.4674 4.60615H16.977V2.53116C16.977 1.40114 16.0577 0.48181 14.9277 0.48181H11.1036C9.97545 0.48181 9.05761 1.40114 9.05761 2.53116V4.64323C7.51639 4.87967 6.33223 6.21569 6.33223 7.82352V25.3803L2.44342 26.1346C0.808584 26.4532 -0.262271 28.0416 0.0559987 29.6743L3.90991 49.5583C4.19121 50.9969 5.4604 52 6.87779 52C7.06639 52 7.25774 51.9823 7.44967 51.9453L15.8334 50.3187C16.2987 50.2285 16.6028 49.778 16.5125 49.3126C16.4222 48.8473 15.9715 48.5429 15.5064 48.6335L7.12419 50.2598C6.41784 50.3961 5.7322 49.933 5.59487 49.2303L1.74096 29.3468C1.60363 28.6422 2.0661 27.9571 2.77096 27.8195L23.6748 23.7647C24.0137 23.6998 24.3599 23.7714 24.6498 23.9672C24.9396 24.1631 25.1351 24.4575 25.2004 24.798L29.0575 44.678C29.1949 45.3826 28.7324 46.0677 28.0275 46.2052L19.6405 47.8318C19.1752 47.9221 18.8711 48.3726 18.9613 48.8379C19.0516 49.3032 19.502 49.607 19.9673 49.5172L28.3551 47.8903C29.9899 47.5717 31.0608 45.9833 30.7425 44.3504L29.6994 38.9747H39.2801C39.7543 38.9747 40.1385 38.5905 40.1385 38.1163C40.1385 37.6422 39.7543 37.258 39.2801 37.258H29.3664L28.462 32.5962C30.7334 34.3052 33.5171 35.2528 36.4063 35.2528C42.1343 35.2528 47.0221 31.5909 48.8528 26.4862H56.8788V35.7572C56.8788 36.5847 56.2071 37.258 55.3814 37.258H43.4838C43.0096 37.258 42.6255 37.6422 42.6255 38.1163C42.6255 38.5905 43.0096 38.9747 43.4838 38.9747H55.3814C57.1536 38.9747 58.5955 37.5313 58.5955 35.7572V7.82352C58.5955 6.0494 57.1536 4.60615 55.3814 4.60615ZM28.0908 2.40127C28.2553 1.94704 28.4045 1.71678 28.5343 1.71678H41.8869C42.0484 1.71678 42.2172 2.08906 42.3302 2.40092L43.1282 4.60615H27.2929L28.0908 2.40127ZM23.1921 22.0377C23.1921 22.0617 23.1933 22.0857 23.1934 22.1096L16.977 23.3155V19.3063H23.4765C23.2906 20.188 23.1921 21.1014 23.1921 22.0377ZM10.7742 2.53116C10.7742 2.3508 10.925 2.19847 11.1035 2.19847H14.9276C15.111 2.19847 15.2603 2.34771 15.2603 2.53116V4.60615H10.7742V2.53116ZM8.04889 7.82352C8.04889 6.99609 8.72068 6.32281 9.54628 6.32281H9.91582H15.2603V23.6484L12.3545 24.212V14.5314C12.3545 13.707 11.6839 13.0363 10.8594 13.0363H8.04889V7.82352ZM8.04889 14.753H10.6379V24.5451L8.04889 25.0473V14.753ZM36.4066 33.5359C33.1748 33.5359 30.0945 32.1738 27.9181 29.7919L26.8861 24.4725C26.7343 23.6825 26.2815 22.9979 25.611 22.5448C25.3906 22.3959 25.1556 22.2787 24.9113 22.1931C24.9106 22.1413 24.9086 22.0896 24.9086 22.0377C24.9086 15.6958 30.0666 10.5363 36.4064 10.5363C42.7483 10.5363 47.9076 15.6959 47.9076 22.0377C47.9077 28.3778 42.7484 33.5359 36.4066 33.5359ZM56.8788 24.7693H49.3397C49.5258 23.8876 49.6243 22.974 49.6243 22.0377C49.6243 21.1014 49.5258 20.188 49.3398 19.3063H56.8788V24.7693ZM56.8788 17.5896H48.8535C47.0231 12.4829 42.1349 8.81964 36.4066 8.81964C30.6797 8.81964 25.7927 12.483 23.9627 17.5896H16.9769V6.32281H26.0695H44.3514H55.3813C56.207 6.32281 56.8787 6.99609 56.8787 7.82352V17.5896H56.8788Z" fill="#AE7C78"/>
</svg>
